<mxfile host="app.diagrams.net" modified="2024-05-30T10:29:59.132Z" agent="Mozilla/5.0 (Windows NT 10.0; Win64; x64) AppleWebKit/537.36 (KHTML, like Gecko) Chrome/115.0.0.0 Safari/537.36 Edg/115.0.1901.188" version="24.4.10" etag="S3i86sMjMKczaFevUXKS" type="github">
  <diagram name="第 1 页" id="00LAR8myBlqyWkB3hPtd">
    <mxGraphModel>
      <root>
        <mxCell id="0" />
        <mxCell id="1" parent="0" />
      </root>
    </mxGraphModel>
  </diagram>
</mxfile>
